<?xml version="1.0" encoding="utf-8"?>
<!-- Generator: Adobe Illustrator 27.1.1, SVG Export Plug-In . SVG Version: 6.00 Build 0)  -->
<svg version="1.1" id="Layer_1" xmlns="http://www.w3.org/2000/svg" xmlns:xlink="http://www.w3.org/1999/xlink" x="0px" y="0px"
	 viewBox="0 0 300 50" style="enable-background:new 0 0 300 50;" xml:space="preserve">
<style type="text/css">
	.st0{fill:#00C8FF;}
	.st1{fill:#6B6B80;}
</style>
<g>
	<path class="st0" d="M22.4,35.8c-1.9,0-3.7-0.4-5.2-1.3c-1.6-0.9-2.8-2.1-3.7-3.8s-1.4-3.7-1.4-6c0-2.4,0.5-4.4,1.4-6
		c0.9-1.7,2.1-2.9,3.7-3.8c1.6-0.9,3.3-1.3,5.2-1.3c1.9,0,3.7,0.4,5.2,1.3c1.5,0.9,2.8,2.1,3.7,3.8c0.9,1.7,1.4,3.7,1.4,6
		c0,2.4-0.5,4.4-1.4,6s-2.1,2.9-3.7,3.8C26.1,35.4,24.3,35.8,22.4,35.8z M22.4,31.3c1,0,1.9-0.3,2.7-0.8c0.8-0.5,1.3-1.2,1.7-2.2
		c0.4-1,0.6-2.2,0.6-3.6c0-1.4-0.2-2.6-0.6-3.6s-1-1.7-1.7-2.2c-0.8-0.5-1.7-0.8-2.7-0.8s-1.9,0.3-2.7,0.8c-0.8,0.5-1.3,1.3-1.7,2.2
		s-0.6,2.2-0.6,3.6c0,1.4,0.2,2.6,0.6,3.6c0.4,1,1,1.7,1.7,2.2C20.5,31.1,21.4,31.3,22.4,31.3z"/>
	<path class="st0" d="M40.5,35.7c-1.1,0-2.1-0.2-2.9-0.7c-0.8-0.5-1.5-1.2-1.9-2.1c-0.5-0.9-0.7-2-0.7-3.2V19.5h5v9.1
		c0,0.9,0.2,1.6,0.7,2.1c0.5,0.5,1.1,0.8,1.9,0.8c0.5,0,1-0.1,1.4-0.4s0.7-0.6,1-1c0.2-0.4,0.3-1,0.3-1.6v-9h5v16h-4.8l-0.1-4.1h0.3
		c-0.4,1.3-1.1,2.3-1.9,3.1C43.1,35.3,42,35.7,40.5,35.7z"/>
	<path class="st0" d="M53.3,35.5v-16h4.9v2.9h0.1c0.3-1.1,0.8-1.8,1.4-2.3c0.7-0.5,1.4-0.7,2.4-0.7c0.2,0,0.5,0,0.7,0
		c0.2,0,0.5,0.1,0.7,0.1v4.3c-0.2-0.1-0.5-0.1-0.9-0.2s-0.7-0.1-1.1-0.1c-0.6,0-1.2,0.1-1.7,0.4c-0.5,0.3-0.9,0.6-1.1,1.1
		c-0.3,0.5-0.4,1.1-0.4,1.7v8.6H53.3z"/>
	<path class="st1" d="M73.6,35.8c-1.8,0-3.4-0.3-4.7-0.8c-1.3-0.5-2.4-1.4-3.1-2.5c-0.7-1.1-1.1-2.5-1.1-4.1h4.9
		c0,0.7,0.2,1.3,0.6,1.8c0.3,0.5,0.8,0.8,1.4,1.1c0.6,0.2,1.3,0.4,2.1,0.4c0.7,0,1.3-0.1,1.8-0.3c0.5-0.2,0.9-0.5,1.2-0.8
		c0.3-0.3,0.4-0.7,0.4-1.2c0-0.4-0.1-0.8-0.4-1.1s-0.6-0.6-1.2-0.8c-0.5-0.2-1.2-0.4-2-0.6l-2.3-0.5c-1.9-0.4-3.4-1.1-4.5-2.1
		c-1.1-1-1.6-2.3-1.6-3.9c0-1.3,0.4-2.5,1.1-3.5c0.7-1,1.7-1.8,3-2.3c1.3-0.6,2.7-0.8,4.4-0.8c1.7,0,3.1,0.3,4.4,0.8
		c1.2,0.6,2.2,1.4,2.9,2.4c0.7,1,1,2.2,1.1,3.6H77c-0.1-0.8-0.4-1.4-1-1.9c-0.6-0.5-1.4-0.7-2.4-0.7c-0.7,0-1.2,0.1-1.7,0.3
		s-0.8,0.4-1.1,0.8c-0.2,0.3-0.4,0.7-0.4,1.1c0,0.4,0.1,0.8,0.4,1.1s0.6,0.6,1.1,0.8s1.1,0.4,1.7,0.5l1.9,0.4c1.1,0.2,2,0.5,2.9,0.9
		c0.8,0.4,1.5,0.8,2.1,1.3c0.6,0.5,1,1.1,1.3,1.8c0.3,0.7,0.4,1.5,0.4,2.3c0,1.4-0.3,2.6-1,3.5c-0.7,1-1.7,1.8-3,2.3
		C76.9,35.5,75.4,35.8,73.6,35.8z"/>
	<path class="st1" d="M94.2,35.8c-1.9,0-3.7-0.4-5.2-1.3c-1.6-0.9-2.8-2.1-3.7-3.8s-1.4-3.7-1.4-6c0-2.4,0.5-4.4,1.4-6
		c0.9-1.7,2.1-2.9,3.7-3.8c1.6-0.9,3.3-1.3,5.2-1.3c1.9,0,3.7,0.4,5.2,1.3c1.5,0.9,2.8,2.1,3.7,3.8c0.9,1.7,1.4,3.7,1.4,6
		c0,2.4-0.5,4.4-1.4,6s-2.1,2.9-3.7,3.8C97.9,35.4,96.2,35.8,94.2,35.8z M94.2,31.3c1,0,1.9-0.3,2.7-0.8c0.8-0.5,1.3-1.2,1.7-2.2
		c0.4-1,0.6-2.2,0.6-3.6c0-1.4-0.2-2.6-0.6-3.6s-1-1.7-1.7-2.2c-0.8-0.5-1.7-0.8-2.7-0.8c-1,0-1.9,0.3-2.7,0.8
		c-0.8,0.5-1.3,1.3-1.7,2.2s-0.6,2.2-0.6,3.6c0,1.4,0.2,2.6,0.6,3.6c0.4,1,1,1.7,1.7,2.2C92.3,31.1,93.2,31.3,94.2,31.3z M92.6,27.8
		h4.2l1.8,2.3l2.3,2.6l3.6,4.5h-4.6l-2.5-3l-1.5-2.1L92.6,27.8z"/>
	<path class="st1" d="M107.1,35.5V13.9h5.1v17.3h9.1v4.2H107.1z"/>
	<path class="st1" d="M129.5,35.5V13.9h14.9v4.2h-9.7v5.3h8.9v4.1h-8.9v7.9H129.5z"/>
	<path class="st1" d="M153.4,35.8c-1.7,0-3.1-0.3-4.3-1c-1.2-0.7-2.2-1.7-2.8-2.9s-1-2.7-1-4.3s0.3-3.1,1-4.3s1.6-2.2,2.8-2.9
		s2.7-1,4.3-1c1.7,0,3.1,0.3,4.3,1s2.1,1.7,2.8,2.9c0.7,1.2,1,2.7,1,4.3s-0.3,3.1-1,4.3c-0.7,1.2-1.6,2.2-2.8,2.9
		C156.5,35.5,155.1,35.8,153.4,35.8z M153.4,31.9c0.6,0,1.2-0.2,1.6-0.5c0.4-0.4,0.8-0.9,1-1.5s0.3-1.4,0.3-2.3
		c0-0.9-0.1-1.7-0.3-2.3c-0.2-0.7-0.6-1.2-1-1.5c-0.4-0.4-1-0.5-1.6-0.5c-0.6,0-1.2,0.2-1.6,0.5c-0.4,0.4-0.8,0.9-1,1.5
		c-0.2,0.7-0.3,1.4-0.3,2.3c0,0.9,0.1,1.7,0.3,2.3c0.2,0.7,0.6,1.2,1,1.5C152.2,31.7,152.8,31.9,153.4,31.9z"/>
	<path class="st1" d="M169.3,35.7c-1.1,0-2.1-0.2-2.9-0.7c-0.8-0.5-1.5-1.2-1.9-2.1c-0.5-0.9-0.7-2-0.7-3.2V19.5h5v9.1
		c0,0.9,0.2,1.6,0.7,2.1c0.5,0.5,1.1,0.8,1.9,0.8c0.5,0,1-0.1,1.4-0.4s0.7-0.6,1-1c0.2-0.4,0.3-1,0.3-1.6v-9h5v16h-4.8l-0.1-4.1h0.3
		c-0.4,1.3-1.1,2.3-1.9,3.1C171.8,35.3,170.7,35.7,169.3,35.7z"/>
	<path class="st1" d="M187,26.5v9h-5v-16h4.8l0.1,4.1h-0.3c0.4-1.3,1-2.3,1.9-3.1c0.9-0.8,2-1.2,3.4-1.2c1.1,0,2.1,0.2,2.9,0.7
		c0.8,0.5,1.5,1.2,1.9,2.1s0.7,2,0.7,3.2v10.1h-5v-9.2c0-0.9-0.2-1.6-0.7-2.1c-0.5-0.5-1.1-0.8-1.9-0.8c-0.5,0-1,0.1-1.4,0.4
		s-0.7,0.6-1,1C187.2,25.3,187,25.8,187,26.5z"/>
	<path class="st1" d="M206.1,35.8c-1.2,0-2.3-0.3-3.3-0.9c-1-0.6-1.8-1.6-2.3-2.8c-0.6-1.2-0.9-2.7-0.9-4.5c0-1.8,0.3-3.3,0.9-4.6
		s1.4-2.1,2.4-2.8c1-0.6,2.1-0.9,3.2-0.9c0.8,0,1.5,0.1,2.1,0.4s1.1,0.6,1.5,1c0.4,0.4,0.7,0.9,0.9,1.4h0.1v-8.2h5v21.6h-5v-2.6
		h-0.1c-0.2,0.5-0.5,1-0.9,1.4c-0.4,0.4-0.9,0.8-1.5,1C207.6,35.6,206.9,35.8,206.1,35.8z M207.8,31.8c0.6,0,1.2-0.2,1.6-0.5
		s0.8-0.9,1.1-1.5s0.4-1.4,0.4-2.3c0-0.9-0.1-1.6-0.4-2.3s-0.6-1.1-1.1-1.5s-1-0.5-1.6-0.5c-0.6,0-1.2,0.2-1.6,0.5
		c-0.4,0.4-0.8,0.8-1,1.5s-0.3,1.4-0.3,2.3s0.1,1.6,0.3,2.3s0.6,1.1,1,1.5C206.6,31.6,207.2,31.8,207.8,31.8z"/>
	<path class="st1" d="M223.2,35.8c-1,0-1.9-0.2-2.8-0.5c-0.8-0.4-1.4-0.9-1.9-1.6c-0.5-0.7-0.7-1.6-0.7-2.6c0-0.9,0.2-1.6,0.5-2.2
		s0.7-1.1,1.3-1.5c0.6-0.4,1.2-0.7,1.9-0.9c0.7-0.2,1.5-0.3,2.3-0.4c0.9-0.1,1.7-0.2,2.2-0.3s1-0.2,1.2-0.4c0.2-0.2,0.4-0.4,0.4-0.7
		v-0.1c0-0.4-0.1-0.7-0.3-0.9s-0.4-0.5-0.7-0.6c-0.3-0.1-0.7-0.2-1.2-0.2c-0.5,0-0.9,0.1-1.2,0.2c-0.4,0.1-0.6,0.3-0.9,0.6
		c-0.2,0.3-0.4,0.5-0.5,0.9l-4.6-0.5c0.2-1,0.6-1.8,1.2-2.5c0.6-0.7,1.4-1.3,2.4-1.7c1-0.4,2.2-0.6,3.6-0.6c1,0,2,0.1,2.8,0.4
		s1.6,0.6,2.3,1c0.6,0.5,1.1,1,1.5,1.7c0.4,0.7,0.5,1.4,0.5,2.3v10.8h-4.8v-2.2h-0.1c-0.3,0.6-0.7,1-1.1,1.4s-1,0.7-1.5,0.9
		C224.6,35.7,223.9,35.8,223.2,35.8z M224.7,32.5c0.6,0,1.1-0.1,1.5-0.3s0.8-0.5,1.1-0.9s0.4-0.9,0.4-1.4v-1.5
		c-0.1,0.1-0.3,0.1-0.5,0.2c-0.2,0.1-0.4,0.1-0.7,0.2s-0.5,0.1-0.8,0.2c-0.3,0-0.5,0.1-0.8,0.1c-0.5,0.1-0.9,0.2-1.2,0.3
		c-0.3,0.2-0.6,0.4-0.8,0.6c-0.2,0.3-0.3,0.6-0.3,0.9c0,0.3,0.1,0.6,0.3,0.9c0.2,0.2,0.4,0.4,0.7,0.6
		C224,32.4,224.3,32.5,224.7,32.5z"/>
	<path class="st1" d="M244.5,19.5v3.8h-10.2v-3.8H244.5z M236.5,15.6h5v14.9c0,0.4,0.1,0.8,0.3,1c0.2,0.2,0.5,0.3,1,0.3
		c0.2,0,0.5,0,0.8-0.1c0.3,0,0.6-0.1,0.7-0.1l0.5,3.7c-0.5,0.1-1,0.2-1.5,0.3c-0.5,0-1,0.1-1.5,0.1c-1.7,0-3.1-0.4-3.9-1.2
		s-1.3-1.9-1.3-3.5V15.6z"/>
	<path class="st1" d="M249.1,17.7c-0.7,0-1.4-0.2-1.9-0.7c-0.5-0.5-0.8-1.1-0.8-1.7c0-0.7,0.3-1.3,0.8-1.8c0.5-0.5,1.1-0.7,1.9-0.7
		c0.7,0,1.4,0.2,1.9,0.7s0.8,1.1,0.8,1.8c0,0.7-0.3,1.3-0.8,1.7S249.9,17.7,249.1,17.7z M246.6,35.5v-16h5v16H246.6z"/>
	<path class="st1" d="M262,35.8c-1.7,0-3.1-0.3-4.3-1c-1.2-0.7-2.2-1.7-2.8-2.9s-1-2.7-1-4.3s0.3-3.1,1-4.3s1.6-2.2,2.8-2.9
		s2.7-1,4.3-1c1.7,0,3.1,0.3,4.3,1s2.1,1.7,2.8,2.9c0.7,1.2,1,2.7,1,4.3s-0.3,3.1-1,4.3c-0.7,1.2-1.6,2.2-2.8,2.9
		C265.1,35.5,263.7,35.8,262,35.8z M262,31.9c0.6,0,1.2-0.2,1.6-0.5c0.4-0.4,0.8-0.9,1-1.5s0.3-1.4,0.3-2.3c0-0.9-0.1-1.7-0.3-2.3
		c-0.2-0.7-0.6-1.2-1-1.5c-0.4-0.4-1-0.5-1.6-0.5c-0.6,0-1.2,0.2-1.6,0.5c-0.4,0.4-0.8,0.9-1,1.5c-0.2,0.7-0.3,1.4-0.3,2.3
		c0,0.9,0.1,1.7,0.3,2.3c0.2,0.7,0.6,1.2,1,1.5C260.8,31.7,261.4,31.9,262,31.9z"/>
	<path class="st1" d="M277.4,26.5v9h-5v-16h4.8l0.1,4.1h-0.3c0.4-1.3,1-2.3,1.9-3.1c0.9-0.8,2-1.2,3.4-1.2c1.1,0,2.1,0.2,2.9,0.7
		c0.8,0.5,1.5,1.2,1.9,2.1s0.7,2,0.7,3.2v10.1h-5v-9.2c0-0.9-0.2-1.6-0.7-2.1c-0.5-0.5-1.1-0.8-1.9-0.8c-0.5,0-1,0.1-1.4,0.4
		s-0.7,0.6-1,1C277.5,25.3,277.4,25.8,277.4,26.5z"/>
</g>
</svg>
